Coordinates
version=1
nRows=17
nColumns=34
inDegrees=yes

Units are S.I. units (second, meters, Newtons, ...)
If the header above contains a line with 'inDegrees', this indicates whether rotational values are in degrees (yes) or radians (no).

endheader
time	pelvis_tilt	pelvis_list	pelvis_rotation	pelvis_tx	pelvis_ty	pelvis_tz	hip_flexion_r	hip_adduction_r	hip_rotation_r	knee_angle_r	ankle_angle_r	subtalar_angle_r	mtp_angle_r	hip_flexion_l	hip_adduction_l	hip_rotation_l	knee_angle_l	ankle_angle_l	subtalar_angle_l	mtp_angle_l	lumbar_extension	lumbar_bending	lumbar_rotation	arm_flex_r	arm_add_r	arm_rot_r	elbow_flex_r	pro_sup_r	arm_flex_l	arm_add_l	arm_rot_l	elbow_flex_l	pro_sup_l
      8.61666670	    -11.59789492	     -0.58546525	     -0.70265084	      0.22853933	      0.87813989	     -0.05826355	      4.94224068	     -1.87925035	     -3.33742178	      0.00000000	     -0.08226824	     -0.73212111	      0.00000000	      5.39422334	     -4.83340185	     -2.83872411	      0.00000000	      2.44940300	      5.49115898	      0.00000000	      4.97971520	      2.90641616	      3.74859905	     40.12051364	     12.79362098	     52.64235038	    129.77147399	    105.17119514	     53.26025604	     20.83702681	     61.14018672	    132.17199661	     86.28424450
      8.63333330	    -11.71431371	     -0.53322718	     -0.65691676	      0.22864458	      0.87605820	     -0.05904852	      5.06181389	     -1.98619154	     -3.27209190	      0.00000000	     -0.16713210	     -0.75647618	      0.00000000	      5.51548511	     -4.71993431	     -2.86987463	      0.00000000	      2.20722243	      5.24658286	      0.00000000	      5.18440951	      2.97629442	      3.75031751	     40.51300959	     12.47578852	     53.60340606	    130.36746175	    105.07542871	     52.09223599	     20.81360398	     61.44229889	    132.69336134	     86.16979398
      8.65000000	    -11.69145931	     -0.54767453	     -0.65279173	      0.22775114	      0.87645010	     -0.05920357	      5.07763260	     -1.98776129	     -3.27635838	      0.00000000	     -0.16530332	     -0.75913733	      0.00000000	      5.51198187	     -4.71425796	     -2.86891106	      0.00000000	      2.20741328	      5.24617853	      0.00000000	      5.19696759	      2.96977742	      3.75835588	     40.51614098	     12.48278271	     53.60805929	    130.37007876	    105.07496800	     52.09096086	     20.80933864	     61.44245077	    132.69413336	     86.16934090
      8.66666670	    -11.68529296	     -0.55688078	     -0.65631942	      0.22696757	      0.87706691	     -0.05975707	      5.09842976	     -1.99533245	     -3.28350659	      0.00000000	     -0.16296337	     -0.76293840	      0.00000000	      5.50753550	     -4.71412242	     -2.86779157	      0.00000000	      2.20692920	      5.24614932	      0.00000000	      5.19790139	      2.96350876	      3.76286568	     40.52324393	     12.48209357	     53.60752633	    130.37091900	    105.07421858	     52.09049305	     20.80357895	     61.44098235	    132.69523288	     86.16872317
      8.68333330	    -11.75126661	     -0.52738616	     -0.77463292	      0.22668542	      0.87618640	     -0.05996374	      5.24617919	     -2.02835650	     -3.40878732	      0.00000000	     -0.14749003	     -0.81968004	      0.00000000	      5.56991762	     -4.67971370	     -2.85398100	      0.00000000	      2.19330075	      5.24636429	      0.00000000	      5.10178767	      2.92911118	      3.77409486	     40.68436369	     12.37208641	     53.52638649	    130.37420471	    105.06066887	     52.07974016	     20.71152970	     61.41264382	    132.71407800	     86.16065254
      8.70000000	    -11.78343528	     -0.50734816	     -0.61904243	      0.22725321	      0.87651703	     -0.06025406	      5.24200817	     -2.06786837	     -3.49582254	      0.00000000	     -0.19976830	     -0.82765699	      0.00000000	      5.62071828	     -4.63651875	     -2.93155097	      0.00000000	      2.14791532	      5.20135803	      0.00000000	      5.31125880	      2.84626000	      3.81990695	     41.04186354	     12.22945153	     53.33767551	    130.40466545	    105.03450595	     52.14511959	     20.58788640	     61.31519936	    132.77127361	     86.14534153
      8.71666670	    -11.83481794	     -0.47410569	     -0.78499131	      0.22568788	      0.87947151	     -0.06081523	      5.33047198	     -2.11075084	     -3.55105137	      0.00000000	     -0.25115746	     -0.82651846	      0.00000000	      5.65102616	     -4.59510235	     -2.89338243	      0.00000000	      2.09274987	      5.22422115	      0.00000000	      5.22204670	      2.88383093	      3.76626573	     41.04587030	     12.20325274	     53.31670995	    130.42588380	    105.02846283	     52.17945511	     20.51046282	     61.25998383	    132.71556843	     86.13752607
      8.73333330	    -11.84705016	     -0.48095864	     -0.78486174	      0.22569336	      0.87868994	     -0.06093505	      5.31740856	     -2.09940591	     -3.55185579	      0.00000000	     -0.26285997	     -0.82192474	      0.00000000	      5.65842736	     -4.57497304	     -2.89512439	      0.00000000	      2.08598369	      5.22421716	      0.00000000	      5.21862217	      2.88118550	      3.76545829	     41.04627620	     12.20832714	     53.31778669	    130.42947859	    105.02808080	     52.18759050	     20.49848108	     61.25056667	    132.70676785	     86.13653034
      8.75000000	    -11.86112906	     -0.39956203	     -0.81881552	      0.22377127	      0.87592358	     -0.06172345	      5.43400581	     -2.20795507	     -3.82674566	      0.00000000	     -1.07719598	     -0.62861866	      0.00000000	      5.75699827	     -4.46034199	     -3.08355861	      0.00000000	      1.64592277	      5.15209617	      0.00000000	      5.34533905	      2.75997927	      3.54747405	     41.08812431	     12.82606164	     53.62604032	    130.80184447	    105.02022061	     52.93338922	     19.96251721	     60.50801752	    132.04107354	     86.06507164
      8.76666670	    -11.85934597	     -0.41011137	     -0.81965085	      0.22525578	      0.87794642	     -0.06130386	      5.43020644	     -2.20367445	     -3.82581948	      0.00000000	     -1.07751644	     -0.62837781	      0.00000000	      5.77579162	     -4.44789402	     -3.08241595	      0.00000000	      1.64535840	      5.15148964	      0.00000000	      5.34022148	      2.75752211	      3.54323620	     41.08907702	     12.82409676	     53.62840141	    130.80139146	    105.02013700	     52.93570882	     19.96135313	     60.50206256	    132.03679598	     86.06435571
      8.78333330	    -11.78653542	     -0.45184381	     -0.71392871	      0.22406830	      0.87646038	     -0.06192036	      5.36085326	     -2.18657404	     -3.82369332	      0.00000000	     -1.10620091	     -0.62001661	      0.00000000	      5.78889397	     -4.45942560	     -3.11051242	      0.00000000	      1.64332671	      5.12298105	      0.00000000	      5.44479103	      2.69090528	      3.53542800	     41.10243495	     12.90752095	     53.72812583	    130.82828445	    105.02301281	     52.97064536	     19.97342813	     60.42739195	    131.98409402	     86.05588498
      8.80000000	    -11.72974949	     -0.45802357	     -0.78926120	      0.22474434	      0.87652901	     -0.06181786	      5.31641351	     -2.18747317	     -3.87927670	      0.00000000	     -1.16179643	     -0.62530286	      0.00000000	      5.71323392	     -4.45868764	     -3.10057489	      0.00000000	      1.61869263	      5.11824996	      0.00000000	      5.59333875	      2.62187773	      3.50067987	     41.12368312	     13.04520794	     53.88300795	    130.87302072	    105.02927521	     53.01998122	     20.01999581	     60.34023210	    131.92558574	     86.04499026
      8.81666670	    -11.69714520	     -0.48362569	     -0.78428586	      0.22274972	      0.87603522	     -0.06244090	      5.32607998	     -2.19161486	     -3.88000424	      0.00000000	     -1.16452404	     -0.62471742	      0.00000000	      5.72186259	     -4.44830583	     -3.10366805	      0.00000000	      1.62099168	      5.11609821	      0.00000000	      5.60416392	      2.61428294	      3.50364274	     41.12560823	     13.05632888	     53.89526874	    130.87567421	    105.02983162	     53.02143689	     20.02133990	     60.33487395	    131.92221163	     86.04436542
      8.83333330	    -11.75111826	     -0.48698375	     -0.72439826	      0.22338915	      0.87498917	     -0.06279077	      5.39724590	     -2.21493551	     -4.03227193	      0.00000000	     -1.51125451	     -0.62428428	      0.00000000	      5.82202463	     -4.42526257	     -3.13926072	      0.00000000	      1.79382761	      5.03167025	      0.00000000	      5.59659286	      2.53813099	      3.32695667	     41.49628417	     13.71724942	     55.07473144	    131.13030255	    105.08661645	     53.32140105	     20.26208357	     59.78555279	    131.47036026	     85.97567810
      8.85000000	    -11.69705641	     -0.51089436	     -0.75326196	      0.22312735	      0.87598234	     -0.06289197	      5.31293069	     -2.19930820	     -4.01007940	      0.00000000	     -1.50382658	     -0.62414916	      0.00000000	      5.75326643	     -4.43035409	     -3.11749565	      0.00000000	      1.79850802	      5.04305198	      0.00000000	      5.75115931	      2.54007315	      3.28016074	     41.52939675	     13.68721997	     55.16067091	    131.13920344	    105.09148301	     53.32159977	     20.29903801	     59.79340175	    131.49437070	     85.97307045
      8.86666670	    -11.68503207	     -0.52960910	     -0.75632303	      0.22274802	      0.87596089	     -0.06332434	      5.29364405	     -2.20342172	     -4.00633666	      0.00000000	     -1.50355549	     -0.62363865	      0.00000000	      5.76931662	     -4.42717567	     -3.11680947	      0.00000000	      1.80292989	      5.04313578	      0.00000000	      5.76289665	      2.53676798	      3.27768358	     41.53485517	     13.68452988	     55.17088097	    131.13822140	    105.09205046	     53.32350392	     20.30293587	     59.79572705	    131.49749770	     85.97286467
      8.88333330	    -11.69588175	     -0.61221120	     -0.62671921	      0.22152749	      0.87660975	     -0.06398796	      5.28584439	     -2.16025675	     -3.88708189	      0.00000000	     -1.45369911	     -0.64215593	      0.00000000	      5.81497572	     -4.46920018	     -2.94834774	      0.00000000	      2.11855853	      5.10188911	      0.00000000	      5.89890745	      2.61672987	      3.07746028	     42.08689621	     13.26360227	     55.72243053	    130.97817468	    105.11991477	     53.64954645	     20.54563955	     60.04843126	    131.63710527	     85.96661508
